<?xml version="1.0" encoding="UTF-8" standalone="no"?>
<svg
   id="logo-1"
   width="126.71878"
   height="29.540478"
   viewBox="0 0 126.71878 29.540478"
   fill="none"
   version="1.1"
   sodipodi:docname="logo.svg"
   inkscape:version="1.2 (dc2aedaf03, 2022-05-15)"
   xmlns:inkscape="http://www.inkscape.org/namespaces/inkscape"
   xmlns:sodipodi="http://sodipodi.sourceforge.net/DTD/sodipodi-0.dtd"
   xmlns="http://www.w3.org/2000/svg"
   xmlns:svg="http://www.w3.org/2000/svg">
  <defs
     id="defs9" />
  <sodipodi:namedview
     id="namedview7"
     pagecolor="#828282"
     bordercolor="#999999"
     borderopacity="1"
     inkscape:showpageshadow="0"
     inkscape:pageopacity="0"
     inkscape:pagecheckerboard="true"
     inkscape:deskcolor="#d1d1d1"
     showgrid="false"
     inkscape:zoom="6.8876959"
     inkscape:cx="36.586981"
     inkscape:cy="34.118812"
     inkscape:window-width="1920"
     inkscape:window-height="1011"
     inkscape:window-x="0"
     inkscape:window-y="32"
     inkscape:window-maximized="1"
     inkscape:current-layer="logo-1" />
  <path
     d="m 35.98998,9.030478 h 3.21 v 13 h -3.21 z m 4.49,8.11 c 0,-3.22 2,-5.15 5,-5.15 3,0 5,1.93 5,5.15 0,3.22 -1.93,5.17 -5,5.17 -3.07,0 -5,-1.88 -5,-5.17 z m 6.82,0 c 0,-1.77 -0.69,-2.81 -1.79,-2.81 -1.1,0 -1.78,1 -1.78,2.81 0,1.81 0.68,2.8 1.78,2.8 1.1,0 1.81,-0.99 1.81,-2.79 z m 4.46,5.56 h 3.1 c 0.1411,0.3337 0.3876,0.6122 0.7018,0.7927 0.3142,0.1806 0.6788,0.2534 1.0382,0.2073 1.23,0 1.87,-0.66 1.87,-1.64 v -1.8 h 0.01 c -0.2649,0.5605 -0.6933,1.0276 -1.2287,1.34 -0.5355,0.3124 -1.153,0.4553 -1.7713,0.41 -2.35,0 -3.91,-1.79 -3.91,-4.87 0,-3.08 1.49,-5 4,-5 0.6341,-0.0339 1.2632,0.1296 1.8004,0.4681 0.5373,0.3385 0.9564,0.8353 1.1996,1.4219 h -0.09 v -1.81 h 3.18 v 9.74 c 0,2.35 -2.08,3.82 -5.14,3.82 -2.78,-0.01 -4.56,-1.28 -4.74,-3.07 z m 6.72,-5.56 c 0,-1.57 -0.72,-2.56 -1.86,-2.56 -1.14,0 -1.84,1 -1.84,2.56 0,1.56 0.69,2.48 1.84,2.48 1.15,0 1.86,-0.85 1.86,-2.48 z m 4.45,0 c 0,-3.22 2,-5.15 5,-5.15 3,0 5,1.93 5,5.15 0,3.22 -1.94,5.17 -5,5.17 -3.06,0 -4.98,-1.88 -4.98,-5.17 z m 6.82,0 c 0,-1.77 -0.7,-2.81 -1.79,-2.81 -1.09,0 -1.78,1 -1.78,2.81 0,1.81 0.68,2.8 1.78,2.8 1.1,0 1.81,-0.99 1.81,-2.79 z m 4.48,-7.29 c -0.014,-0.327 0.0702,-0.6507 0.2417,-0.9294 0.1715,-0.2788 0.4225,-0.4998 0.7207,-0.6347 0.2982,-0.135 0.6299,-0.1776 0.9525,-0.1224 0.3226,0.0551 0.6213,0.2055 0.8577,0.4318 0.2364,0.2264 0.3997,0.5182 0.4689,0.8381 0.0691,0.3199 0.041,0.6532 -0.0808,0.9569 -0.1218,0.3038 -0.3317,0.5642 -0.6027,0.7477 -0.271,0.1835 -0.5907,0.2817 -0.918,0.282 -0.2091,0.0053 -0.4173,-0.031 -0.6123,-0.1067 -0.195,-0.0758 -0.3731,-0.1896 -0.5238,-0.3347 -0.1507,-0.1451 -0.2711,-0.3187 -0.3541,-0.5108 -0.0831,-0.192 -0.1272,-0.3986 -0.1298,-0.6078 z m 0,2.36 h 3.25 v 9.86 h -3.2 z m 14.94,4.93 c 0,3.21 -1.44,5.07 -3.89,5.07 -0.6272,0.0387 -1.2512,-0.1161 -1.7877,-0.4433 -0.5365,-0.3273 -0.9596,-0.8113 -1.2123,-1.3867 h -0.06 v 4.86 h -3.21 v -13 h 3.19 v 1.76 h 0.06 c 0.244,-0.5867 0.663,-1.084 1.1998,-1.424 0.5369,-0.34 1.1655,-0.5062 1.8002,-0.476 2.52,-0.02 3.97,1.83 3.97,5.05 z m -3.27,0 c 0,-1.56 -0.73,-2.57 -1.86,-2.57 -1.13,0 -1.84,1 -1.85,2.57 -0.01,1.57 0.72,2.56 1.85,2.56 1.13,0 1.92,-0.93 1.92,-2.55 z m 8.75,-5.16 c 2.69,0 4.36,1.27 4.38,3.31 h -2.93 c 0,-0.71 -0.59,-1.15 -1.47,-1.15 -0.88,0 -1.3,0.34 -1.3,0.85 0,0.51 0.37,0.67 1.11,0.82 l 2.06,0.42 c 2,0.42 2.8,1.22 2.8,2.71 0,2 -1.85,3.36 -4.6,3.36 -2.75,0 -4.54,-1.32 -4.67,-3.33 h 3.11 c 0.09,0.73 0.67,1.16 1.61,1.16 0.94,0 1.38,-0.3 1.38,-0.83 0,-0.53 -0.3,-0.62 -1.07,-0.78 l -1.86,-0.39 c -1.93,-0.41 -2.94,-1.42 -2.94,-2.93 0.06,-1.96 1.74,-3.21 4.45,-3.21 z m 15.4,10.08 h -3.11 v -1.85 h -0.06 c -0.174,0.6171 -0.553,1.1564 -1.075,1.529 -0.522,0.3727 -1.155,0.5564 -1.795,0.521 -0.483,0.0157 -0.965,-0.0709 -1.412,-0.2543 -0.447,-0.1833 -0.851,-0.4592 -1.184,-0.8095 -0.334,-0.3504 -0.589,-0.7673 -0.75,-1.2233 -0.161,-0.456 -0.224,-0.941 -0.184,-1.4229 v -6.33 h 3.21 v 5.64 c 0,1.16 0.61,1.79 1.61,1.79 0.235,-0.0018 0.466,-0.0539 0.679,-0.1527 0.213,-0.0989 0.402,-0.2423 0.554,-0.4205 0.153,-0.1782 0.266,-0.3871 0.331,-0.6125 0.064,-0.2255 0.08,-0.4622 0.046,-0.6943 v -5.55 h 3.2 z m 1.55,-9.85 h 3.12 v 1.9 h 0.07 c 0.172,-0.6087 0.542,-1.143 1.05,-1.5194 0.509,-0.3763 1.128,-0.5735 1.76,-0.5606 0.635,-0.0552 1.268,0.1284 1.774,0.5149 0.507,0.3865 0.851,0.9482 0.966,1.5751 h 0.14 c 0.2,-0.6303 0.602,-1.1769 1.145,-1.5548 0.542,-0.378 1.195,-0.5661 1.855,-0.5352 0.439,-0.0167 0.877,0.0595 1.284,0.2236 0.408,0.164 0.776,0.4123 1.081,0.7286 0.305,0.3162 0.539,0.6933 0.688,1.1065 0.15,0.4132 0.21,0.8532 0.177,1.2913 v 6.69 h -3.23 v -5.87 c 0,-1 -0.47,-1.56 -1.38,-1.56 -0.202,-0.0033 -0.402,0.0371 -0.587,0.1183 -0.185,0.0813 -0.349,0.2016 -0.483,0.3526 -0.134,0.1511 -0.234,0.3292 -0.293,0.5224 -0.058,0.1932 -0.074,0.3967 -0.047,0.5967 v 5.84 h -3.06 v -5.9 c 0,-1 -0.49,-1.53 -1.37,-1.53 -0.204,-0.0016 -0.406,0.0404 -0.592,0.1232 -0.187,0.0829 -0.353,0.2046 -0.489,0.3571 -0.135,0.1525 -0.236,0.3322 -0.296,0.527 -0.061,0.1949 -0.079,0.4004 -0.053,0.6027 v 5.82 h -3.21 z"
     class="ccustom"
     fill="#394149"
     id="path2"
     style="fill:#ffffff" />
  <path
     d="m 29.63998,9.880478 c 10e-5,-1.9903 -0.6009,-3.93424 -1.7243,-5.57718 -1.1234,-1.64294 -2.7169,-2.90829 -4.5716,-3.63029003 -1.8547,-0.72201 -3.8843,-0.86701 -5.8228,-0.41602 -1.9386,0.45099 -3.6957,1.47695003 -5.0413,2.94349003 H 0 v 26.34 h 26.34998 v -12.31 c 1.0342,-0.925 1.8618,-2.0577 2.4287,-3.3242 0.5669,-1.2665 0.8604,-2.6382 0.8613,-4.0258 z m -5.07,0 c 0.002,0.9537 -0.279,1.8866 -0.8074,2.6806 -0.5285,0.7939 -1.2805,1.4133 -2.1611,1.7796 -0.8806,0.3664 -1.85,0.4633 -2.7857,0.2784 -0.9356,-0.1848 -1.7954,-0.6431 -2.4705,-1.3168 -0.6751,-0.6737 -1.1351,-1.5325 -1.3219,-2.4678 -0.1868,-0.9352 -0.0919,-1.9049 0.2726,-2.7862 0.3645,-0.88134 0.9823,-1.63471 1.7751,-2.16478 0.7929,-0.53007 1.7252,-0.81301 2.6789,-0.81302 1.2766,0 2.5011,0.50645 3.4047,1.40821 0.9037,0.90176 1.4127,2.12519 1.4153,3.40179 z m -3.29,14.59 H 5.07 v -16.2 h 4.93998 c -0.0954,0.5315 -0.1456,1.0701 -0.15,1.61 0.0027,2.6222 1.0455,5.1362 2.8997,6.9904 1.8541,1.8541 4.3681,2.897 6.9903,2.8996 0.5127,-0.0027 1.0243,-0.0462 1.53,-0.13 z"
     class="ccustom"
     fill="#394149"
     id="path4"
     style="fill:#ffffff" />
</svg>
